<?xml version="1.0" encoding="utf-8"?>
<!-- Generator: Adobe Illustrator 21.0.0, SVG Export Plug-In . SVG Version: 6.00 Build 0)  -->
<svg version="1.1" id="Layer_1" xmlns="http://www.w3.org/2000/svg" xmlns:xlink="http://www.w3.org/1999/xlink" x="0px" y="0px"
	 viewBox="0 0 26 26" style="enable-background:new 0 0 26 26;" xml:space="preserve">
<style type="text/css">
	.st0{fill:#003366;}
</style>
<path class="st0" d="M1.7,25c-0.2,0-0.4-0.1-0.6-0.3C1,24.5,1,24.3,1,24.1l1.3-5.5c0-0.2,0.1-0.3,0.3-0.5l0.1-0.1
	C2.8,18.1,2.9,18,3,18c0.1,0,0.3,0,0.4,0.1l4.5,4.5C8,22.8,8,23.1,7.9,23.3l-0.1,0.1c-0.1,0.1-0.3,0.2-0.4,0.3L1.9,25
	C1.8,25,1.8,25,1.7,25z M9.5,21.3c-0.1,0-0.3-0.1-0.4-0.1l-4.4-4.4c-0.1-0.1-0.1-0.2-0.1-0.3c0-0.1,0-0.3,0.1-0.4L15.9,4.9
	c0.2-0.2,0.5-0.2,0.7,0c0,0,0,0,0,0L21,9.3c0.2,0.2,0.2,0.5,0,0.7c0,0,0,0,0,0L9.9,21.2C9.8,21.3,9.7,21.3,9.5,21.3z M22.8,8.1
	c-0.1,0-0.3-0.1-0.4-0.1L18,3.6c-0.2-0.2-0.2-0.5,0-0.7c0,0,0,0,0,0l1.1-1.2c0.8-0.8,2-0.8,2.8,0c0,0,0,0,0,0L24.4,4
	C24.8,4.3,25,4.9,25,5.4c0,0.5-0.2,1-0.6,1.3L23.1,8C23,8.1,22.9,8.1,22.8,8.1z"/>
</svg>
