<?xml version="1.0" encoding="utf-8"?>
<!-- Generator: Adobe Illustrator 21.0.0, SVG Export Plug-In . SVG Version: 6.00 Build 0)  -->
<svg version="1.1" id="Layer_1" xmlns="http://www.w3.org/2000/svg" xmlns:xlink="http://www.w3.org/1999/xlink" x="0px" y="0px"
	 viewBox="0 0 300 60" style="enable-background:new 0 0 300 60;" xml:space="preserve">
<style type="text/css">
	.st0{opacity:0.6;}
	.st1{fill:#BE1E2D;stroke:#FFFFFF;stroke-width:2.8473;stroke-miterlimit:10;}
	.st2{fill:#21409A;stroke:#FFFFFF;stroke-width:2.8473;stroke-miterlimit:10;}
	.st3{stroke:#FFFFFF;stroke-width:2.8473;stroke-miterlimit:10;}
	.st4{fill:#BE1E2D;}
	.st5{fill:#21409A;}
	.st6{fill:#333333;}
</style>
<g class="st0">
	<path class="st1" d="M44,25.2c0,2.8-1.4,5-4.1,6.5c-2.1,1.1-4.8,1.7-8,1.7h-27V4.1h27c3.3,0,5.8,0.4,8,1.4c2.7,1.4,4.1,3.6,4.1,6.4
		V25.2L44,25.2L44,25.2z M37.6,25.2V11.9c0-0.9-0.7-1.4-2.3-1.9c-1-0.3-2.1-0.4-3.4-0.4H11.4v18.2h20.4c1.4,0,2.6-0.1,3.6-0.4
		C36.9,26.9,37.6,26.2,37.6,25.2z M80.7,33.4H61.1c-3,0-5.7-0.6-7.8-1.6c-2.8-1.4-4.3-3.4-4.3-6.1V11.9c0-2.8,1.4-4.8,4.4-6.3
		c2.3-1.1,5-1.6,8.1-1.6h19.4v5.6H61.8c-4.3,0-6.4,0.7-6.4,2.3v4.3h18.5v5.6H55.4v3.8c0,1.6,2,2.3,5.8,2.3h19.6L80.7,33.4L80.7,33.4
		z M125,33.4h-8.8l-10.8-11l-10.8,11h-8.8L101,18.9L85.7,4.1h8.4l11.2,11.1l11.2-11.1h8.4l-15.4,14.8L125,33.4z"/>
	<path class="st2" d="M162.4,9.6h-13.1v23.9h-6.4V9.6h-13.1V4.1h32.6V9.6L162.4,9.6z M207.7,33.4h-7.3l-5.4-7.5h-19.9l-5.3,7.5h-7.5
		l19.2-27.3c1-1.3,2.1-2,3.6-2c1.6,0,2.7,0.7,3.6,2L207.7,33.4z M191.2,20.3l-6.1-8.7l-6,8.7C179.1,20.3,191.2,20.3,191.2,20.3z
		 M246.4,33.4h-7.5l-12.8-10.8h-8.8v10.8h-6.4V4.1h22.9c3.4,0,6.1,0.4,8.4,1.4c3,1.3,4.6,3.4,4.6,6.3v3.4c0,2.7-1.4,4.7-4.1,6
		c-2,1-4.7,1.4-7.7,1.4h-1L246.4,33.4z M240,15.2v-3.4c0-1.4-1.9-2.1-5.6-2.1h-17.2v7.5h18.4C238.5,17.2,240,16.5,240,15.2z
		 M294.9,33.4h-7.3l-5.4-7.5h-19.9l-5.3,7.5h-7.5l19.2-27.3c1-1.3,2.1-2,3.6-2c1.6,0,2.7,0.7,3.6,2L294.9,33.4z M278.3,20.3
		l-6.1-8.7l-6,8.7C266.2,20.3,278.3,20.3,278.3,20.3z"/>
	<g>
		<path class="st3" d="M145.9,52.8l-4.3-5.7l-4.3,5.7h-2l5.1-6.8l-4.8-6.5h2l4,5.3l4-5.3h2l-4.8,6.4l5.1,6.8h-2V52.8z"/>
		<path class="st3" d="M151.2,51.2v5.1h-1.6V43.1h1.6v1.4c0.7-1,1.9-1.7,3.3-1.7c2.6,0,4.3,1.9,4.3,5s-1.7,5.1-4.3,5.1
			C153.2,52.9,151.9,52.3,151.2,51.2z M157.2,47.9c0-2.1-1.1-3.7-3.1-3.7c-1.1,0-2.4,0.7-2.8,1.6v4.4c0.6,0.9,1.7,1.6,2.8,1.6
			C156,51.6,157.2,50.1,157.2,47.9z"/>
		<path class="st3" d="M160.6,47.9c0-2.8,2-5,4.7-5c2.8,0,4.7,2.3,4.7,5.1v0.3h-7.8c0.1,1.9,1.4,3.3,3.4,3.3c1.1,0,2.3-0.4,3-1.3
			l0.7,1c-1,1-2.3,1.4-3.8,1.4C162.6,52.9,160.6,50.9,160.6,47.9z M165.3,44.1c-2,0-3.1,1.7-3.1,3.3h6.3
			C168.4,45.9,167.4,44.1,165.3,44.1z"/>
		<path class="st3" d="M172.3,52.8v-9.7h1.4v1.6c0.7-1,1.9-1.7,3.3-1.7v1.6c-0.1,0-0.4,0-0.6,0c-0.9,0-2.1,0.7-2.6,1.6V53
			L172.3,52.8L172.3,52.8z"/>
		<path class="st3" d="M178.7,40.7c0-0.6,0.4-1,1-1s1,0.4,1,1s-0.4,1-1,1C179.1,41.7,178.7,41.2,178.7,40.7z M179,52.8v-9.7h1.6v9.7
			H179z"/>
		<path class="st3" d="M182.8,47.9c0-2.8,2-5,4.7-5c2.8,0,4.6,2.3,4.6,5.1v0.3h-7.8c0.1,1.9,1.4,3.3,3.4,3.3c1.1,0,2.3-0.4,3-1.3
			l0.7,1c-1,1-2.3,1.4-3.8,1.4C184.9,52.9,182.8,50.9,182.8,47.9z M187.5,44.1c-2,0-3.1,1.7-3.1,3.3h6.3
			C190.8,45.9,189.8,44.1,187.5,44.1z"/>
		<path class="st3" d="M201.2,52.8v-6.3c0-1.7-0.9-2.3-2.1-2.3c-1.1,0-2.3,0.7-2.8,1.6v7h-1.6v-9.7h1.6v1.4c0.7-0.9,2-1.6,3.4-1.6
			c2,0,3.1,1,3.1,3.1v6.7h-1.6V52.8z"/>
		<path class="st3" d="M205,47.9c0-2.8,2-5,4.8-5c1.7,0,2.8,0.7,3.6,1.7l-1,0.9c-0.6-0.9-1.4-1.3-2.4-1.3c-2,0-3.3,1.6-3.3,3.7
			c0,2.1,1.3,3.7,3.3,3.7c1,0,1.9-0.4,2.4-1.3l1,0.9c-0.7,1-1.7,1.7-3.6,1.7C207,52.9,205,50.8,205,47.9z"/>
		<path class="st3" d="M214.8,47.9c0-2.8,2-5,4.7-5c2.8,0,4.7,2.3,4.7,5.1v0.3h-7.8c0.1,1.9,1.4,3.3,3.4,3.3c1.1,0,2.3-0.4,3-1.3
			l0.7,1c-1,1-2.3,1.4-3.8,1.4C217,52.9,214.8,50.9,214.8,47.9z M219.7,44.1c-2,0-3.1,1.7-3.1,3.3h6.3
			C222.8,45.9,221.8,44.1,219.7,44.1z"/>
		<polygon class="st3" points="227.4,49.5 227.9,50.6 229.2,50.8 228.2,51.6 228.5,52.9 227.4,52.3 226.2,52.9 226.5,51.6
			225.7,50.8 226.8,50.6 		"/>
		<path class="st3" d="M236.3,52.8V39.5h4.6c4.1,0,6.8,2.8,6.8,6.7s-2.7,6.7-6.8,6.7h-4.6V52.8z M246,46.1c0-2.8-1.9-5.1-5.1-5.1
			H238v10.3h2.8C244.2,51.2,246,48.9,246,46.1z"/>
		<path class="st3" d="M250,40.7c0-0.6,0.4-1,1-1s1,0.4,1,1s-0.4,1-1,1S250,41.2,250,40.7z M250.3,52.8v-9.7h1.6v9.7H250.3z"/>
		<path class="st3" d="M254.7,55.2l0.7-1.1c0.9,1,1.7,1.3,3.1,1.3c1.6,0,3.1-0.7,3.1-2.8v-1.4c-0.7,1-1.9,1.7-3.3,1.7
			c-2.6,0-4.3-1.9-4.3-5s1.7-5,4.3-5c1.3,0,2.4,0.6,3.3,1.7v-1.4h1.6v9.4c0,3.1-2.3,4.1-4.6,4.1C257,56.6,255.8,56.3,254.7,55.2z
			 M261.7,49.9v-4.3c-0.6-0.9-1.7-1.6-2.8-1.6c-2,0-3.1,1.6-3.1,3.7s1.1,3.7,3.1,3.7C260,51.5,261.1,50.8,261.7,49.9z"/>
		<path class="st3" d="M265.9,40.7c0-0.6,0.4-1,1-1s1,0.4,1,1s-0.4,1-1,1C266.4,41.7,265.9,41.2,265.9,40.7z M266.1,52.8v-9.7h1.6
			v9.7H266.1z"/>
		<path class="st3" d="M270.9,50.8v-6.3h-1.6v-1.3h1.6v-2.6h1.6v2.6h2v1.3h-2v6c0,0.7,0.3,1.3,1,1.3c0.4,0,0.9-0.1,1-0.4l0.4,1.1
			c-0.4,0.4-0.9,0.6-1.9,0.6C271.6,52.9,270.9,52.2,270.9,50.8z"/>
		<path class="st3" d="M282.5,52.8v-1.1c-0.9,0.9-1.9,1.3-3.1,1.3c-1.6,0-3.4-1.1-3.4-3.1c0-2.1,1.7-3.1,3.4-3.1
			c1.3,0,2.4,0.4,3.1,1.3v-1.7c0-1.3-1-2-2.4-2c-1.1,0-2.1,0.4-3,1.3l-0.7-1c1-1.1,2.3-1.6,3.8-1.6c2,0,3.7,0.9,3.7,3.3v6.7h-1.4
			V52.8z M282.5,50.6v-1.9c-0.6-0.9-1.6-1.1-2.7-1.1c-1.4,0-2.4,0.9-2.4,2.1s1,2.1,2.4,2.1C280.9,51.9,281.9,51.5,282.5,50.6z"/>
		<path class="st3" d="M287,52.8V39.5h1.4v13.2H287V52.8z"/>
		<polygon class="st3" points="292.3,49.5 292.9,50.6 294.1,50.8 293.1,51.6 293.4,52.9 292.3,52.3 291.1,52.9 291.4,51.6
			290.6,50.8 291.7,50.6 		"/>
	</g>
</g>
<g>
	<path class="st4" d="M44,25.2c0,2.8-1.4,5-4.1,6.5c-2.1,1.1-4.8,1.7-8,1.7h-27V4.1h27c3.3,0,5.8,0.4,8,1.4c2.7,1.4,4.1,3.6,4.1,6.4
		V25.2L44,25.2L44,25.2z M37.6,25.2V11.9c0-0.9-0.7-1.4-2.3-1.9c-1-0.3-2.1-0.4-3.4-0.4H11.4v18.2h20.4c1.4,0,2.6-0.1,3.6-0.4
		C36.9,26.9,37.6,26.2,37.6,25.2z M80.7,33.4H61.1c-3,0-5.7-0.6-7.8-1.6c-2.8-1.4-4.3-3.4-4.3-6.1V11.9c0-2.8,1.4-4.8,4.4-6.3
		c2.3-1.1,5-1.6,8.1-1.6h19.4v5.6H61.8c-4.3,0-6.4,0.7-6.4,2.3v4.3h18.5v5.6H55.4v3.8c0,1.6,2,2.3,5.8,2.3h19.6L80.7,33.4L80.7,33.4
		z M125,33.4h-8.8l-10.8-11l-10.8,11h-8.8L101,18.9L85.7,4.1h8.4l11.2,11.1l11.2-11.1h8.4l-15.4,14.8L125,33.4z"/>
	<path class="st5" d="M162.4,9.6h-13.1v23.9h-6.4V9.6h-13.1V4.1h32.6V9.6L162.4,9.6z M207.7,33.4h-7.3l-5.4-7.5h-19.9l-5.3,7.5h-7.5
		l19.2-27.3c1-1.3,2.1-2,3.6-2c1.6,0,2.7,0.7,3.6,2L207.7,33.4z M191.2,20.3l-6.1-8.7l-6,8.7C179.1,20.3,191.2,20.3,191.2,20.3z
		 M246.4,33.4h-7.5l-12.8-10.8h-8.8v10.8h-6.4V4.1h22.9c3.4,0,6.1,0.4,8.4,1.4c3,1.3,4.6,3.4,4.6,6.3v3.4c0,2.7-1.4,4.7-4.1,6
		c-2,1-4.7,1.4-7.7,1.4h-1L246.4,33.4z M240,15.2v-3.4c0-1.4-1.9-2.1-5.6-2.1h-17.2v7.5h18.4C238.5,17.2,240,16.5,240,15.2z
		 M294.9,33.4h-7.3l-5.4-7.5h-19.9l-5.3,7.5h-7.5l19.2-27.3c1-1.3,2.1-2,3.6-2c1.6,0,2.7,0.7,3.6,2L294.9,33.4z M278.3,20.3
		l-6.1-8.7l-6,8.7C266.2,20.3,278.3,20.3,278.3,20.3z"/>
</g>
<g>
	<path class="st6" d="M145.9,52.8l-4.3-5.7l-4.3,5.7h-2l5.1-6.8l-4.8-6.5h2l4,5.3l4-5.3h2l-4.8,6.4l5.1,6.8h-2V52.8z"/>
	<path class="st6" d="M151.2,51.2v5.1h-1.6V43.1h1.6v1.4c0.7-1,1.9-1.7,3.3-1.7c2.6,0,4.3,1.9,4.3,5s-1.7,5.1-4.3,5.1
		C153.2,52.9,151.9,52.3,151.2,51.2z M157.2,47.9c0-2.1-1.1-3.7-3.1-3.7c-1.1,0-2.4,0.7-2.8,1.6v4.4c0.6,0.9,1.7,1.6,2.8,1.6
		C156,51.6,157.2,50.1,157.2,47.9z"/>
	<path class="st6" d="M160.6,47.9c0-2.8,2-5,4.7-5c2.8,0,4.7,2.3,4.7,5.1v0.3h-7.8c0.1,1.9,1.4,3.3,3.4,3.3c1.1,0,2.3-0.4,3-1.3
		l0.7,1c-1,1-2.3,1.4-3.8,1.4C162.6,52.9,160.6,50.9,160.6,47.9z M165.3,44.1c-2,0-3.1,1.7-3.1,3.3h6.3
		C168.4,45.9,167.4,44.1,165.3,44.1z"/>
	<path class="st6" d="M172.3,52.8v-9.7h1.4v1.6c0.7-1,1.9-1.7,3.3-1.7v1.6c-0.1,0-0.4,0-0.6,0c-0.9,0-2.1,0.7-2.6,1.6V53L172.3,52.8
		L172.3,52.8z"/>
	<path class="st6" d="M178.7,40.7c0-0.6,0.4-1,1-1s1,0.4,1,1s-0.4,1-1,1C179.1,41.7,178.7,41.2,178.7,40.7z M179,52.8v-9.7h1.6v9.7
		H179z"/>
	<path class="st6" d="M182.8,47.9c0-2.8,2-5,4.7-5c2.8,0,4.6,2.3,4.6,5.1v0.3h-7.8c0.1,1.9,1.4,3.3,3.4,3.3c1.1,0,2.3-0.4,3-1.3
		l0.7,1c-1,1-2.3,1.4-3.8,1.4C184.9,52.9,182.8,50.9,182.8,47.9z M187.5,44.1c-2,0-3.1,1.7-3.1,3.3h6.3
		C190.8,45.9,189.8,44.1,187.5,44.1z"/>
	<path class="st6" d="M201.2,52.8v-6.3c0-1.7-0.9-2.3-2.1-2.3c-1.1,0-2.3,0.7-2.8,1.6v7h-1.6v-9.7h1.6v1.4c0.7-0.9,2-1.6,3.4-1.6
		c2,0,3.1,1,3.1,3.1v6.7h-1.6V52.8z"/>
	<path class="st6" d="M205,47.9c0-2.8,2-5,4.8-5c1.7,0,2.8,0.7,3.6,1.7l-1,0.9c-0.6-0.9-1.4-1.3-2.4-1.3c-2,0-3.3,1.6-3.3,3.7
		c0,2.1,1.3,3.7,3.3,3.7c1,0,1.9-0.4,2.4-1.3l1,0.9c-0.7,1-1.7,1.7-3.6,1.7C207,52.9,205,50.8,205,47.9z"/>
	<path class="st6" d="M214.8,47.9c0-2.8,2-5,4.7-5c2.8,0,4.7,2.3,4.7,5.1v0.3h-7.8c0.1,1.9,1.4,3.3,3.4,3.3c1.1,0,2.3-0.4,3-1.3
		l0.7,1c-1,1-2.3,1.4-3.8,1.4C217,52.9,214.8,50.9,214.8,47.9z M219.7,44.1c-2,0-3.1,1.7-3.1,3.3h6.3
		C222.8,45.9,221.8,44.1,219.7,44.1z"/>
	<polygon class="st6" points="227.4,49.5 227.9,50.6 229.2,50.8 228.2,51.6 228.5,52.9 227.4,52.3 226.2,52.9 226.5,51.6
		225.7,50.8 226.8,50.6 	"/>
	<path class="st6" d="M236.3,52.8V39.5h4.6c4.1,0,6.8,2.8,6.8,6.7s-2.7,6.7-6.8,6.7h-4.6V52.8z M246,46.1c0-2.8-1.9-5.1-5.1-5.1H238
		v10.3h2.8C244.2,51.2,246,48.9,246,46.1z"/>
	<path class="st6" d="M250,40.7c0-0.6,0.4-1,1-1s1,0.4,1,1s-0.4,1-1,1S250,41.2,250,40.7z M250.3,52.8v-9.7h1.6v9.7H250.3z"/>
	<path class="st6" d="M254.7,55.2l0.7-1.1c0.9,1,1.7,1.3,3.1,1.3c1.6,0,3.1-0.7,3.1-2.8v-1.4c-0.7,1-1.9,1.7-3.3,1.7
		c-2.6,0-4.3-1.9-4.3-5s1.7-5,4.3-5c1.3,0,2.4,0.6,3.3,1.7v-1.4h1.6v9.4c0,3.1-2.3,4.1-4.6,4.1C257,56.6,255.8,56.3,254.7,55.2z
		 M261.7,49.9v-4.3c-0.6-0.9-1.7-1.6-2.8-1.6c-2,0-3.1,1.6-3.1,3.7s1.1,3.7,3.1,3.7C260,51.5,261.1,50.8,261.7,49.9z"/>
	<path class="st6" d="M265.9,40.7c0-0.6,0.4-1,1-1s1,0.4,1,1s-0.4,1-1,1C266.4,41.7,265.9,41.2,265.9,40.7z M266.1,52.8v-9.7h1.6
		v9.7H266.1z"/>
	<path class="st6" d="M270.9,50.8v-6.3h-1.6v-1.3h1.6v-2.6h1.6v2.6h2v1.3h-2v6c0,0.7,0.3,1.3,1,1.3c0.4,0,0.9-0.1,1-0.4l0.4,1.1
		c-0.4,0.4-0.9,0.6-1.9,0.6C271.6,52.9,270.9,52.2,270.9,50.8z"/>
	<path class="st6" d="M282.5,52.8v-1.1c-0.9,0.9-1.9,1.3-3.1,1.3c-1.6,0-3.4-1.1-3.4-3.1c0-2.1,1.7-3.1,3.4-3.1
		c1.3,0,2.4,0.4,3.1,1.3v-1.7c0-1.3-1-2-2.4-2c-1.1,0-2.1,0.4-3,1.3l-0.7-1c1-1.1,2.3-1.6,3.8-1.6c2,0,3.7,0.9,3.7,3.3v6.7h-1.4
		V52.8z M282.5,50.6v-1.9c-0.6-0.9-1.6-1.1-2.7-1.1c-1.4,0-2.4,0.9-2.4,2.1s1,2.1,2.4,2.1C280.9,51.9,281.9,51.5,282.5,50.6z"/>
	<path class="st6" d="M287,52.8V39.5h1.4v13.2H287V52.8z"/>
	<polygon class="st6" points="292.3,49.5 292.9,50.6 294.1,50.8 293.1,51.6 293.4,52.9 292.3,52.3 291.1,52.9 291.4,51.6
		290.6,50.8 291.7,50.6 	"/>
</g>
</svg>
