<?xml version="1.0" encoding="utf-8"?>
<!-- Generator: Adobe Illustrator 21.0.0, SVG Export Plug-In . SVG Version: 6.00 Build 0)  -->
<svg version="1.1" id="Layer_1" xmlns="http://www.w3.org/2000/svg" xmlns:xlink="http://www.w3.org/1999/xlink" x="0px" y="0px"
	 viewBox="0 0 24 24" style="enable-background:new 0 0 24 24;" xml:space="preserve">
<style type="text/css">
	.st0{fill:#0967C6;}
	.st1{fill:#4194F9;}
	.st2{fill:#414042;}
</style>
<g id="option01">
	<path class="st0" d="M17.25,4H1.75C1.34,4,1,3.66,1,3.25S1.34,2.5,1.75,2.5h15.5C17.66,2.5,18,2.84,18,3.25S17.66,4,17.25,4z
		 M23,3.25c0-0.41-0.34-0.75-0.75-0.75h-2c-0.41,0-0.75,0.34-0.75,0.75S19.84,4,20.25,4h2C22.66,4,23,3.66,23,3.25z"/>
	<path class="st1" d="M23.25,1.5H0.75C0.34,1.5,0,1.16,0,0.75S0.34,0,0.75,0h22.5C23.66,0,24,0.34,24,0.75S23.66,1.5,23.25,1.5z
		 M24,23.25c0-0.41-0.34-0.75-0.75-0.75H0.75C0.34,22.5,0,22.84,0,23.25S0.34,24,0.75,24h22.5C23.66,24,24,23.66,24,23.25z M24,5.75
		C24,5.34,23.66,5,23.25,5H0.75C0.34,5,0,5.34,0,5.75S0.34,6.5,0.75,6.5h22.5C23.66,6.5,24,6.16,24,5.75z"/>
	<path class="st2" d="M17.25,9.5H1.75C1.34,9.5,1,9.16,1,8.75S1.34,8,1.75,8h15.5C17.66,8,18,8.34,18,8.75S17.66,9.5,17.25,9.5z
		 M18,17.75c0-0.41-0.34-0.75-0.75-0.75H1.75C1.34,17,1,17.34,1,17.75s0.34,0.75,0.75,0.75h15.5C17.66,18.5,18,18.16,18,17.75z
		 M23,8.75C23,8.34,22.66,8,22.25,8h-2c-0.41,0-0.75,0.34-0.75,0.75s0.34,0.75,0.75,0.75h2C22.66,9.5,23,9.16,23,8.75z M17,11.75
		c0-0.41-0.34-0.75-0.75-0.75h-10c-0.41,0-0.75,0.34-0.75,0.75s0.34,0.75,0.75,0.75h10C16.66,12.5,17,12.16,17,11.75z M17,14.75
		c0-0.41-0.34-0.75-0.75-0.75h-10c-0.41,0-0.75,0.34-0.75,0.75s0.34,0.75,0.75,0.75h10C16.66,15.5,17,15.16,17,14.75z M23,17.75
		c0-0.41-0.34-0.75-0.75-0.75h-2c-0.41,0-0.75,0.34-0.75,0.75s0.34,0.75,0.75,0.75h2C22.66,18.5,23,18.16,23,17.75z M17,20.75
		c0-0.41-0.34-0.75-0.75-0.75h-10c-0.41,0-0.75,0.34-0.75,0.75s0.34,0.75,0.75,0.75h10C16.66,21.5,17,21.16,17,20.75z M3.78,12.28
		c0.07-0.07,0.13-0.15,0.16-0.24C3.98,11.95,4,11.85,4,11.75c0-0.1-0.02-0.19-0.06-0.29c-0.03-0.09-0.09-0.17-0.16-0.24
		c-0.21-0.21-0.54-0.28-0.81-0.16c-0.1,0.04-0.18,0.09-0.25,0.16c-0.07,0.07-0.12,0.15-0.16,0.24c-0.04,0.1-0.06,0.19-0.06,0.29
		c0,0.1,0.02,0.2,0.06,0.29c0.04,0.09,0.09,0.17,0.16,0.24s0.15,0.12,0.25,0.16c0.09,0.04,0.18,0.06,0.28,0.06
		C3.45,12.5,3.64,12.42,3.78,12.28z M3.54,15.44c0.09-0.03,0.17-0.09,0.24-0.16C3.92,15.14,4,14.95,4,14.75
		c0-0.1-0.02-0.2-0.06-0.29c-0.03-0.09-0.09-0.17-0.16-0.24c-0.07-0.07-0.15-0.12-0.24-0.16c-0.18-0.08-0.39-0.08-0.57,0
		c-0.1,0.04-0.18,0.09-0.25,0.16c-0.14,0.14-0.22,0.33-0.22,0.53s0.08,0.39,0.22,0.53c0.15,0.14,0.34,0.22,0.53,0.22
		C3.35,15.5,3.45,15.48,3.54,15.44z M3.78,21.28C3.92,21.14,4,20.95,4,20.75c0-0.1-0.02-0.2-0.06-0.29
		c-0.03-0.09-0.09-0.17-0.16-0.24c-0.07-0.07-0.15-0.12-0.24-0.16c-0.18-0.08-0.39-0.08-0.57,0c-0.1,0.03-0.18,0.09-0.25,0.16
		s-0.12,0.15-0.16,0.24S2.5,20.65,2.5,20.75c0,0.2,0.08,0.39,0.22,0.53c0.14,0.14,0.33,0.22,0.53,0.22S3.64,21.42,3.78,21.28z"/>
</g>
</svg>
