<?xml version="1.0" encoding="utf-8"?>
<!-- Generator: Adobe Illustrator 21.0.0, SVG Export Plug-In . SVG Version: 6.00 Build 0)  -->
<svg version="1.1" id="Layer_1" xmlns="http://www.w3.org/2000/svg" xmlns:xlink="http://www.w3.org/1999/xlink" x="0px" y="0px"
	 viewBox="0 0 24 24" style="enable-background:new 0 0 24 24;" xml:space="preserve">
<style type="text/css">
	.st0{fill:#0967C6;}
	.st1{fill:#414042;}
	.st2{fill:#4194F9;}
</style>
<g id="option03">
	<path class="st0" d="M10.25,4h-8.5C1.34,4,1,3.66,1,3.25S1.34,2.5,1.75,2.5h8.5C10.66,2.5,11,2.84,11,3.25S10.66,4,10.25,4z
		 M17,3.25c0-0.41-0.34-0.75-0.75-0.75h-3c-0.41,0-0.75,0.34-0.75,0.75S12.84,4,13.25,4h3C16.66,4,17,3.66,17,3.25z M23,3.25
		c0-0.41-0.34-0.75-0.75-0.75h-3c-0.41,0-0.75,0.34-0.75,0.75S18.84,4,19.25,4h3C22.66,4,23,3.66,23,3.25z"/>
	<path class="st1" d="M10.25,9.5h-8.5C1.34,9.5,1,9.16,1,8.75S1.34,8,1.75,8h8.5C10.66,8,11,8.34,11,8.75S10.66,9.5,10.25,9.5z
		 M11,11.75c0-0.41-0.34-0.75-0.75-0.75h-8.5C1.34,11,1,11.34,1,11.75s0.34,0.75,0.75,0.75h8.5C10.66,12.5,11,12.16,11,11.75z
		 M11,14.75c0-0.41-0.34-0.75-0.75-0.75h-8.5C1.34,14,1,14.34,1,14.75s0.34,0.75,0.75,0.75h8.5C10.66,15.5,11,15.16,11,14.75z
		 M11,17.75c0-0.41-0.34-0.75-0.75-0.75h-8.5C1.34,17,1,17.34,1,17.75s0.34,0.75,0.75,0.75h8.5C10.66,18.5,11,18.16,11,17.75z
		 M17,8.75C17,8.34,16.66,8,16.25,8h-3c-0.41,0-0.75,0.34-0.75,0.75s0.34,0.75,0.75,0.75h3C16.66,9.5,17,9.16,17,8.75z M23,8.75
		C23,8.34,22.66,8,22.25,8h-3c-0.41,0-0.75,0.34-0.75,0.75s0.34,0.75,0.75,0.75h3C22.66,9.5,23,9.16,23,8.75z M17,11.75
		c0-0.41-0.34-0.75-0.75-0.75h-3c-0.41,0-0.75,0.34-0.75,0.75s0.34,0.75,0.75,0.75h3C16.66,12.5,17,12.16,17,11.75z M23,11.75
		c0-0.41-0.34-0.75-0.75-0.75h-3c-0.41,0-0.75,0.34-0.75,0.75s0.34,0.75,0.75,0.75h3C22.66,12.5,23,12.16,23,11.75z M17,14.75
		c0-0.41-0.34-0.75-0.75-0.75h-3c-0.41,0-0.75,0.34-0.75,0.75s0.34,0.75,0.75,0.75h3C16.66,15.5,17,15.16,17,14.75z M23,14.75
		c0-0.41-0.34-0.75-0.75-0.75h-3c-0.41,0-0.75,0.34-0.75,0.75s0.34,0.75,0.75,0.75h3C22.66,15.5,23,15.16,23,14.75z M17,17.75
		c0-0.41-0.34-0.75-0.75-0.75h-3c-0.41,0-0.75,0.34-0.75,0.75s0.34,0.75,0.75,0.75h3C16.66,18.5,17,18.16,17,17.75z M23,17.75
		c0-0.41-0.34-0.75-0.75-0.75h-3c-0.41,0-0.75,0.34-0.75,0.75s0.34,0.75,0.75,0.75h3C22.66,18.5,23,18.16,23,17.75z M11,20.75
		c0-0.41-0.34-0.75-0.75-0.75h-8.5C1.34,20,1,20.34,1,20.75s0.34,0.75,0.75,0.75h8.5C10.66,21.5,11,21.16,11,20.75z M17,20.75
		c0-0.41-0.34-0.75-0.75-0.75h-3c-0.41,0-0.75,0.34-0.75,0.75s0.34,0.75,0.75,0.75h3C16.66,21.5,17,21.16,17,20.75z M23,20.75
		c0-0.41-0.34-0.75-0.75-0.75h-3c-0.41,0-0.75,0.34-0.75,0.75s0.34,0.75,0.75,0.75h3C22.66,21.5,23,21.16,23,20.75z"/>
	<path class="st2" d="M23.25,1.5H0.75C0.34,1.5,0,1.16,0,0.75S0.34,0,0.75,0h22.5C23.66,0,24,0.34,24,0.75S23.66,1.5,23.25,1.5z
		 M24,23.25c0-0.41-0.34-0.75-0.75-0.75H0.75C0.34,22.5,0,22.84,0,23.25S0.34,24,0.75,24h22.5C23.66,24,24,23.66,24,23.25z M24,5.75
		C24,5.34,23.66,5,23.25,5H0.75C0.34,5,0,5.34,0,5.75S0.34,6.5,0.75,6.5h22.5C23.66,6.5,24,6.16,24,5.75z"/>
</g>
</svg>
